<svg width="16" height="17" viewBox="0 0 16 17" fill="none" xmlns="http://www.w3.org/2000/svg">
<path d="M9.5 2C9.5 2.84375 8.8125 3.5 8 3.5C7.15625 3.5 6.5 2.84375 6.5 2C6.5 1.1875 7.15625 0.5 8 0.5C8.8125 0.5 9.5 1.1875 9.5 2ZM9.5 15C9.5 15.8438 8.8125 16.5 8 16.5C7.15625 16.5 6.5 15.8438 6.5 15C6.5 14.1875 7.15625 13.5 8 13.5C8.8125 13.5 9.5 14.1875 9.5 15ZM0 8.5C0 7.6875 0.65625 7 1.5 7C2.3125 7 3 7.6875 3 8.5C3 9.34375 2.3125 10 1.5 10C0.65625 10 0 9.34375 0 8.5ZM16 8.5C16 9.34375 15.3125 10 14.5 10C13.6562 10 13 9.34375 13 8.5C13 7.6875 13.6562 7 14.5 7C15.3125 7 16 7.6875 16 8.5ZM2.3125 14.1562C1.75 13.5938 1.75 12.625 2.3125 12.0625C2.90625 11.4688 3.875 11.4688 4.4375 12.0625C5.03125 12.625 5.03125 13.5938 4.4375 14.1562C3.875 14.75 2.90625 14.75 2.3125 14.1562ZM4.4375 4.96875C3.875 5.5625 2.90625 5.5625 2.3125 4.96875C1.75 4.40625 1.75 3.4375 2.3125 2.84375C2.90625 2.28125 3.875 2.28125 4.4375 2.84375C5.03125 3.4375 5.03125 4.40625 4.4375 4.96875ZM11.5312 12.0625C12.0938 11.4688 13.0625 11.4688 13.6562 12.0625C14.2188 12.625 14.2188 13.5938 13.6562 14.1562C13.0625 14.75 12.0938 14.75 11.5312 14.1562C10.9375 13.5938 10.9375 12.625 11.5312 12.0625Z" fill="white"/>
</svg>
